<svg width="124" height="124" viewBox="0 0 124 124" fill="none" xmlns="http://www.w3.org/2000/svg">
<path d="M48.1469 72.8887V51.0919C48.1469 49.7543 47.0625 48.67 45.725 48.67H23.9281C22.5905 48.67 21.5062 49.7543 21.5062 51.0919V72.8887C21.5062 74.2263 22.5905 75.3106 23.9281 75.3106H45.725C47.0625 75.3106 48.1469 74.2263 48.1469 72.8887Z" fill="#EBF4F6"/>
<path d="M48.1469 106.078V84.2812C48.1469 82.9437 47.0625 81.8594 45.725 81.8594H23.9281C22.5905 81.8594 21.5062 82.9437 21.5062 84.2812V106.078C21.5062 107.416 22.5905 108.5 23.9281 108.5H45.725C47.0625 108.5 48.1469 107.416 48.1469 106.078Z" fill="#CEE3E9"/>
<path d="M48.1469 39.7188V17.9219C48.1469 16.5843 47.0625 15.5 45.725 15.5L23.9281 15.5C22.5905 15.5 21.5062 16.5843 21.5062 17.9219V39.7188C21.5062 41.0563 22.5905 42.1406 23.9281 42.1406H45.725C47.0625 42.1406 48.1469 41.0563 48.1469 39.7188Z" fill="#11a8d5"/>
<path d="M40.8494 25.0049L39.7397 23.8952C39.3387 23.4942 38.6885 23.4942 38.2875 23.8952L31.0127 31.17C30.6117 31.571 30.6117 32.2212 31.0127 32.6222L32.1224 33.7319C32.5234 34.1329 33.1736 34.1329 33.5746 33.7319L40.8494 26.4571C41.2505 26.0561 41.2505 25.4059 40.8494 25.0049Z" fill="white"/>
<path d="M33.586 33.7239L34.6959 32.6143C35.097 32.2134 35.0971 31.5632 34.6962 31.1621L31.3813 27.8461C30.9804 27.445 30.3302 27.4449 29.9291 27.8459L28.8192 28.9554C28.4181 29.3563 28.418 30.0065 28.8189 30.4076L32.1338 33.7236C32.5348 34.1247 33.1849 34.1248 33.586 33.7239Z" fill="white"/>
<path d="M84.7268 31.6781L42.315 74.09C41.151 75.2504 40.2809 76.6719 39.7768 78.2363L34.875 93.3294C34.7404 93.7525 34.7248 94.2046 34.8298 94.636C34.9348 95.0675 35.1565 95.4618 35.4705 95.7758C35.7845 96.0898 36.1787 96.3114 36.6102 96.4164C37.0416 96.5214 37.4937 96.5058 37.9168 96.3712L53.01 91.5275C54.5791 91.0312 56.0071 90.1677 57.1756 89.0087L99.6456 46.5C100.853 45.2968 101.722 43.7961 102.165 42.1496C102.607 40.5031 102.607 38.769 102.164 37.1225L101.912 36.1925C101.474 34.5414 100.607 33.0355 99.3993 31.8276C98.1913 30.6196 96.6854 29.7526 95.0343 29.3144L94.1237 29.0819C92.4677 28.6454 90.7256 28.6557 89.0749 29.1118C87.4242 29.5679 85.9239 30.4534 84.7268 31.6781V31.6781Z" fill="#11a8d5"/>
<path d="M95.0344 29.3919L94.1237 29.1594C92.4744 28.7133 90.7365 28.7113 89.0862 29.1536C87.4359 29.596 85.9319 30.4669 84.7269 31.6781L74.3419 42.0438C75.5469 40.8326 77.0509 39.9616 78.7012 39.5193C80.3515 39.0769 82.0894 39.0789 83.7387 39.525L84.6494 39.7769C86.3005 40.2151 87.8063 41.0822 89.0143 42.2901C90.2222 43.498 91.0893 45.0039 91.5275 46.655L91.7794 47.5656C92.2255 49.2149 92.2274 50.9529 91.7851 52.6032C91.3427 54.2535 90.4718 55.7574 89.2606 56.9625L99.6456 46.5C100.853 45.2968 101.722 43.7961 102.165 42.1496C102.607 40.5031 102.607 38.769 102.164 37.1225L101.912 36.1925C101.462 34.5557 100.59 33.0659 99.3829 31.8723C98.1758 30.6788 96.6762 29.8234 95.0344 29.3919V29.3919Z" fill="#235563"/>
<path d="M47.6237 83.6806C45.3703 81.4103 42.6725 79.6294 39.6993 78.4494L34.875 93.3294C34.7404 93.7525 34.7248 94.2046 34.8298 94.636C34.9348 95.0675 35.1565 95.4618 35.4705 95.7758C35.7845 96.0898 36.1787 96.3114 36.6102 96.4164C37.0416 96.5214 37.4937 96.5058 37.9168 96.3712L52.8162 91.605C51.6369 88.6407 49.8708 85.9453 47.6237 83.6806Z" fill="#EBF4F6"/>
<path d="M37.975 96.3712L41.0557 95.3831C39.6261 93.4112 37.8932 91.6783 35.9213 90.2487L34.875 93.3294C34.7341 93.7586 34.716 94.2188 34.8229 94.6578C34.9297 95.0968 35.1573 95.4972 35.4798 95.8136C35.8023 96.1301 36.2069 96.35 36.6478 96.4485C37.0888 96.5471 37.5485 96.5203 37.975 96.3712V96.3712Z" fill="white"/>
</svg>
