<svg width="926" height="841" viewBox="0 0 926 841" fill="none" xmlns="http://www.w3.org/2000/svg">
<path d="M0.302886 556.966V567.168C0.300287 601.583 13.9711 634.589 38.307 658.923C62.6429 683.257 95.6498 696.925 130.065 696.92H182.72C197.503 696.926 209.484 708.911 209.484 723.694V823.565H657.04V723.694C657.036 712.675 663.79 702.782 674.053 698.772C677.173 697.539 680.498 696.911 683.853 696.92H772.386C773.778 696.92 775.169 696.901 776.561 696.861C806.881 695.951 836.002 684.816 859.194 665.266C862.154 662.777 864.999 660.164 867.73 657.426C906.304 618.862 917.847 560.858 896.976 510.464C876.105 460.07 826.931 427.213 772.386 427.214H668.457C655.799 427.426 644.011 420.794 637.62 409.866C631.228 398.937 631.228 385.412 637.62 374.483C644.011 363.555 655.799 356.923 668.457 357.134H843.759C889.012 357.134 925.697 320.45 925.697 275.197C925.697 229.944 889.012 193.259 843.759 193.259C806.255 193.259 775.851 162.859 775.845 125.355V56.1667C775.848 49.0668 773.029 42.2568 768.01 37.2355C762.991 32.2142 756.182 29.3931 749.082 29.3931H125.223C95.7382 29.0706 68.3535 44.616 53.517 70.0987C38.6805 95.5813 38.6805 127.071 53.517 152.553C68.3535 178.036 95.7382 193.581 125.223 193.259H191.863C218.164 193.259 239.486 214.577 239.491 240.877C239.486 267.177 218.164 288.495 191.863 288.495C190.991 288.495 190.129 288.495 189.266 288.554C156.183 289.942 130.085 317.181 130.114 350.294V392.434C130.116 411.452 117.638 428.217 99.4201 433.673C74.3713 441.17 39.7577 456.977 18.7563 489.533C13.2013 498.175 8.87712 507.549 5.90849 517.384C2.08213 530.226 0.192808 543.567 0.302886 556.966V556.966Z" fill="#F0F9FB"/>
<rect x="34.064" y="0.257812" width="838.792" height="479.896" rx="17.7" fill="#ADEEF1"/>
<rect x="422.222" y="83.0972" width="398.537" height="351.389" rx="28.4" fill="#F0F9FB"/>
<path d="M523.888 218.082L594.879 203.226C595.9 208.112 596.415 213.091 596.417 218.082C596.417 257.87 563.676 290.602 523.897 290.602C484.119 290.602 451.377 257.861 451.377 218.082C451.377 178.304 484.119 145.562 523.897 145.562L523.888 218.082Z" fill="#11A8D5"/>
<path d="M523.888 218.082L509.06 147.14C513.95 146.119 518.932 145.603 523.927 145.602C563.715 145.602 596.447 178.343 596.447 218.122C596.447 257.9 563.705 290.642 523.927 290.642C484.149 290.642 451.407 257.9 451.407 218.122L523.888 218.082Z" fill="#ADEEF1"/>
<rect x="616.654" y="178.402" width="41.0522" height="23.275" rx="11.6375" fill="#ADEEF1"/>
<rect x="667.683" y="178.402" width="128.302" height="23.275" rx="11.6375" fill="#ADEEF1"/>
<rect x="669.438" y="210.87" width="74.431" height="23.275" rx="11.6375" fill="#ADEEF1"/>
<rect x="667.683" y="241.74" width="128.302" height="23.275" rx="11.6375" fill="#ADEEF1"/>
<rect x="451.358" y="329.459" width="344.627" height="23.275" rx="11.6375" fill="#ADEEF1"/>
<rect x="451.358" y="362.515" width="344.627" height="37.0048" rx="18.5024" fill="#ADEEF1"/>
<rect x="616.654" y="241.74" width="41.0522" height="23.275" rx="11.6375" fill="#ADEEF1"/>
<rect x="94.6865" y="77.2856" width="242.824" height="92.6786" rx="11.38" fill="#11A8D5"/>
<rect x="104.369" y="89.8691" width="83.6332" height="67.522" rx="5.7" fill="#F0F9FB"/>
<rect x="119.206" y="126.903" width="8.0262" height="26.6266" rx="4.0131" fill="#ADEEF1"/>
<rect x="132.809" y="116.672" width="8.0262" height="36.8578" rx="4.0131" fill="#ADEEF1"/>
<rect x="146.538" y="105.274" width="8.0262" height="48.2552" rx="4.0131" fill="#ADEEF1"/>
<rect x="164.1" y="96.6016" width="8.0262" height="56.9282" rx="4.0131" fill="#ADEEF1"/>
<rect x="202.163" y="101.433" width="123.176" height="9.065" rx="4.5325" fill="#F0F9FB"/>
<rect x="202.163" y="120.808" width="82.7904" height="9.065" rx="3.79" fill="#F0F9FB"/>
<path d="M51.4002 0.257813H855.51C865.09 0.257813 872.856 8.02388 872.856 17.6038V41.3002H34.064V17.6038C34.064 8.02771 41.8241 0.263223 51.4002 0.257812V0.257813Z" fill="#11A8D5"/>
<circle cx="145.088" cy="20.7789" r="9.898" fill="white"/>
<circle cx="108.123" cy="20.7789" r="9.898" fill="white"/>
<circle cx="182.044" cy="20.7789" r="9.898" fill="white"/>
<rect x="94.6865" y="257.165" width="102.39" height="177.645" rx="27.69" fill="#11A8D5"/>
<rect x="214.883" y="333.085" width="102.39" height="101.714" rx="20.95" fill="#11A8D5"/>
<rect x="335.551" y="371.021" width="68.1982" height="63.7882" rx="13.54" fill="#11A8D5"/>
<rect x="108.005" y="840.823" width="72.5788" height="17.2578" rx="8.6289" transform="rotate(-180 108.005 840.823)" fill="#ADEEF1"/>
<rect x="908.772" y="840.823" width="793.741" height="17.2578" rx="8.6289" transform="rotate(-180 908.772 840.823)" fill="#ADEEF1"/>
<path d="M221.992 159.464C223.592 164.268 220.994 169.46 216.19 171.059V171.059C211.387 172.659 206.195 170.062 204.595 165.258L195.578 138.183C193.978 133.379 196.576 128.187 201.379 126.588V126.588C206.183 124.988 211.375 127.585 212.974 132.389L221.992 159.464Z" fill="#FEC3CD"/>
<circle cx="206.407" cy="166.74" r="18.0614" fill="#FEC3CD"/>
<path d="M380.141 456.565V640.051L372.5 822.5L336 820L330.479 654.018L336 484.5C336 469.623 337.278 460 347 460L380.141 456.565Z" fill="#DDD6FE"/>
<path d="M482 809.522H445.654L430.5 727L389.5 554.389L380.121 504.468L377.652 491.306C376.103 483.084 377.181 475.274 380.121 469.688C382.415 465.346 385.835 462.347 390.029 461.563L426.897 454.625L445.654 554.389L469 719.5L482 809.522Z" fill="#DDD6FE"/>
<path d="M445.674 554.389H389.5L380.122 504.468V554.389H324.958L333.5 486C333.5 471.124 333.278 456.565 343 456.565H380.122V469.688C382.415 465.346 385.835 462.347 390.03 461.563L426.897 454.625L445.674 554.389Z" fill="#FEC3CD"/>
<path d="M329.182 809.87L375.908 802.067C377.969 801.722 380.029 802.716 381.574 804.803C383.119 806.889 384.001 809.87 384 812.998C384 819.074 380.735 824 376.708 824H329.697C327.103 824 325 820.827 325 816.913C325.001 813.3 326.802 810.266 329.182 809.87V809.87Z" fill="#4E4F50"/>
<path d="M440.182 807.943L486.908 799.077C488.969 798.684 491.029 799.814 492.574 802.185C494.119 804.556 495.001 807.943 495 811.498C495 818.403 491.735 824 487.708 824H440.697C438.103 824 436 820.394 436 815.946C436.001 811.841 437.802 808.393 440.182 807.943V807.943Z" fill="#4E4F50"/>
<path d="M344.988 344.444C335.069 353.275 320.031 353.006 310.434 343.826C309.934 343.356 309.454 342.846 308.983 342.337L294.087 325.598L185.092 203.098C175.728 192.579 176.665 176.461 187.184 167.098C197.703 157.735 213.821 158.671 223.184 169.19L306.543 262.878L328.211 287.28L347.076 308.488C356.422 318.995 355.487 335.088 344.988 344.444V344.444Z" fill="#FED5DC"/>
<path d="M347.076 308.448L328.211 287.28L306.543 262.927C306.543 263.172 306.484 263.398 306.455 263.633C306.455 263.633 311.757 282.841 294.087 325.637L308.983 342.376C309.444 342.895 309.963 343.356 310.434 343.865C320.3 353.449 335.991 353.473 345.886 343.919C355.781 334.366 356.307 318.684 347.076 308.487V308.448Z" fill="#FEC3CD"/>
<path d="M470.703 405.517C464.781 408.791 457.8 409.576 451.299 407.697C444.799 405.818 439.312 401.43 436.05 395.502L423.898 373.52L416.617 360.32L394.998 321.12C388.271 308.949 392.545 293.631 404.602 286.702L405.004 286.477C410.923 283.208 417.898 282.426 424.394 284.302C430.89 286.179 436.373 290.561 439.637 296.482L442.802 302.206L480.699 370.894C483.965 376.811 484.747 383.783 482.873 390.276C480.998 396.769 476.62 402.252 470.703 405.517V405.517Z" fill="#FED5DC"/>
<path d="M543.622 357.517C557.702 357.451 569.17 368.811 569.237 382.891V382.891C569.303 396.972 557.943 408.44 543.863 408.506L458.868 408.906C444.788 408.973 433.32 397.612 433.254 383.532V383.532C433.187 369.452 444.548 357.984 458.628 357.918L543.622 357.517Z" fill="#FED5DC"/>
<ellipse cx="553.97" cy="377.039" rx="34.2118" ry="26.9794" transform="rotate(-50.27 553.97 377.039)" fill="#FED5DC"/>
<path opacity="0.38" d="M575.818 350.667C564.959 341.641 547.231 344.787 535.128 357.585L473.525 357.879L439.637 296.463C434.352 286.839 423.497 281.683 412.698 283.667C401.899 285.652 393.586 294.33 392.068 305.204C396.193 296.588 404.791 291.003 414.339 290.737C423.888 290.47 432.784 295.567 437.383 303.94L467.195 357.938L471.271 365.347H477.612L529.434 365.102H532.874C535.657 362.133 538.86 359.587 542.38 357.546C553.092 351.441 565.342 351.235 573.603 358.105C580.649 363.985 583.178 373.599 581.247 383.585C586.363 371.217 584.628 357.997 575.818 350.667V350.667Z" fill="#F9E0E5"/>
<path d="M520.956 349.279C523.067 349.269 524.786 350.972 524.796 353.083L525.079 413.127C525.089 415.238 523.386 416.957 521.275 416.967V416.967C519.164 416.977 517.445 415.274 517.435 413.163L517.152 353.119C517.142 351.008 518.845 349.289 520.956 349.279V349.279Z" fill="#4E4F50"/>
<path d="M511.503 353.769C513.614 353.759 515.333 355.462 515.343 357.573L515.587 409.346C515.597 411.457 513.894 413.176 511.783 413.186V413.186C509.672 413.196 507.953 411.493 507.943 409.382L507.699 357.609C507.689 355.498 509.392 353.779 511.503 353.769V353.769Z" fill="#4E4F50"/>
<path d="M337.021 353.548V412.269C337.021 434.238 354.83 452.048 376.799 452.048C398.768 452.048 416.577 434.238 416.577 412.269V353.548L337.021 353.548Z" fill="#8B5CF6"/>
<path d="M361.786 236.575V297.335C361.791 305.094 368.08 311.383 375.839 311.388H377.74C385.503 311.388 391.798 305.098 391.803 297.335V236.575C391.806 232.844 390.325 229.264 387.688 226.625C385.05 223.985 381.471 222.502 377.74 222.502H375.829C368.066 222.513 361.78 228.812 361.786 236.575H361.786Z" fill="#FED5DC"/>
<path d="M435.844 343.434V345.62C435.839 361.649 422.846 374.642 406.817 374.647H344.518C328.491 374.642 315.5 361.647 315.5 345.62V343.434C315.508 327.479 321.853 312.179 333.14 300.902C335.085 298.962 337.158 297.155 339.344 295.493C357.548 281.685 382.002 279.38 402.465 289.544C422.928 299.708 435.867 320.586 435.864 343.434H435.844Z" fill="#8B5CF6"/>
<path d="M425.976 310.418C418.036 298.385 406.065 289.576 392.215 285.575C396.683 287.619 400.889 290.195 404.739 293.249C419.163 304.643 427.573 322.015 427.563 340.396V342.572C427.551 354.837 419.843 365.776 408.296 369.914V409.232C408.287 421.454 402.664 432.995 393.044 440.535C383.423 448.074 370.873 450.776 359.002 447.863C371.337 454.032 385.987 453.373 397.719 446.122C409.45 438.871 416.59 426.061 416.587 412.27V372.962C428.133 368.825 435.839 357.885 435.844 345.62V343.434C435.867 331.699 432.435 320.216 425.976 310.418V310.418Z" fill="#9F79F6"/>
<path d="M413.02 296.296C402.875 302.529 391.286 306.023 379.387 306.439C378.524 306.488 377.662 306.498 376.79 306.498C375.359 306.498 373.928 306.449 372.527 306.361C360.705 305.659 349.264 301.915 339.314 295.492C361.19 278.916 391.511 279.247 413.02 296.296V296.296Z" fill="#FED5DC"/>
<circle cx="418.969" cy="207.626" r="14.8764" fill="#FEC3CD"/>
<circle cx="339.324" cy="207.626" r="14.8764" fill="#FEC3CD"/>
<path d="M451.17 595.371L328.529 602.475C324.535 602.71 320.547 600.282 317.603 595.823C314.659 591.365 313.051 585.315 313.196 579.249C314.666 522.809 310.025 424.216 376.892 420.342C442.973 416.515 454.961 517.059 463.133 571.075C464.031 577.006 463.237 583.06 460.95 587.704C458.663 592.348 455.103 595.139 451.17 595.371Z" fill="#4E4F50"/>
<path d="M450.672 595.45L426.456 596.844C430.561 596.612 434.283 593.804 436.682 589.131C439.08 584.459 439.924 578.37 439 572.406C431.101 521.454 419.359 430.527 360.973 422.703C364.975 421.713 369.484 419.835 373.574 419.619C442.522 415.651 454.793 516.728 463.196 571.013C464.12 576.972 463.278 583.057 460.884 587.728C458.49 592.399 454.772 595.21 450.672 595.45Z" fill="#636669"/>
<rect x="330.073" y="144.22" width="95.7656" height="222.813" rx="47.8828" fill="#DDB140"/>
<rect x="322.047" y="218.083" width="111.798" height="148.95" rx="52.79" fill="#DDB140"/>
<path d="M425.839 242.2V192.103C425.844 179.4 420.801 167.216 411.821 158.232C402.841 149.248 390.659 144.2 377.956 144.2C376.191 144.199 374.428 144.297 372.674 144.494C396.923 147.19 415.269 167.685 415.274 192.083V242.2C420.518 250.474 423.295 260.07 423.281 269.866V315.347C423.262 342.641 402.04 365.223 374.8 366.935C374.095 366.935 373.389 366.817 372.693 366.739C371.998 366.817 371.292 366.886 370.577 366.935C369.528 367.003 368.479 367.033 367.411 367.033H382.111C395.834 367.035 408.995 361.586 418.699 351.883C428.403 342.181 433.855 329.021 433.855 315.298V269.817C433.861 260.036 431.08 250.457 425.839 242.2V242.2Z" fill="#E8CA7D"/>
<rect x="375.143" y="260.546" width="33.3494" height="64.0234" rx="16.6747" fill="#E8CA7D"/>
<circle cx="380.141" cy="162.967" r="25.9406" fill="#8B5CF6"/>
<circle cx="380.141" cy="148.885" r="32.879" fill="#E8CA7D"/>
<path d="M413.02 148.875C413.014 167.036 398.293 181.758 380.131 181.763C378.804 181.768 377.478 181.683 376.162 181.509C392.678 179.522 405.106 165.51 405.106 148.875C405.106 132.24 392.678 118.227 376.162 116.241C377.479 116.075 378.804 115.993 380.131 115.996C398.291 115.996 413.014 130.715 413.02 148.875V148.875Z" fill="#EED8A0"/>
<ellipse cx="197.074" cy="172.309" rx="28.8316" ry="34.2118" transform="rotate(-36.25 197.074 172.309)" fill="#FED5DC"/>
<path d="M220.273 162.114C223.39 166.104 222.681 171.866 218.691 174.982V174.982C214.7 178.099 208.939 177.391 205.822 173.4L166.052 122.479C162.936 118.488 163.644 112.727 167.635 109.61V109.61C171.625 106.494 177.387 107.202 180.503 111.193L220.273 162.114Z" fill="#FED5DC"/>
<ellipse opacity="0.38" cx="553.966" cy="383.038" rx="14.749" ry="10.1136" transform="rotate(-50.27 553.966 383.038)" fill="#F9E0E5"/>
<path d="M713.303 672.374C721.701 692.749 712.002 716.076 691.632 724.489L671.499 732.787C663.097 712.401 672.812 689.063 693.198 680.66L713.303 672.374H713.303Z" fill="#0D87BE"/>
<path d="M661.943 633.451C682.33 641.854 692.044 665.192 683.642 685.578L675.344 705.711C654.957 697.308 645.243 673.97 653.645 653.584L661.943 633.451Z" fill="#126C99"/>
<path d="M671.552 732.785L651.419 724.487C631.033 716.084 621.318 692.746 629.721 672.36L649.881 680.669C670.25 689.082 679.95 712.409 671.552 732.785Z" fill="#0D87BE"/>
<path d="M741.32 751.663C740.861 790.812 708.995 822.308 669.844 822.308C630.692 822.308 598.826 790.812 598.367 751.663C598.363 748.909 598.524 746.157 598.847 743.421C599.204 740.27 599.774 737.147 600.553 734.072H739.134C739.918 737.145 740.488 740.269 740.84 743.421C741.168 746.156 741.329 748.909 741.32 751.663V751.663Z" fill="#0D87BE"/>
<rect x="589.587" y="715.364" width="163.836" height="18.7082" rx="9.3541" fill="#126C99"/>
<path d="M740.84 743.421H598.848C599.205 740.27 599.774 737.146 600.553 734.072H739.135C739.919 737.145 740.489 740.269 740.84 743.421V743.421Z" fill="#126C99"/>
</svg>
