<svg width="124" height="124" viewBox="0 0 124 124" fill="none" xmlns="http://www.w3.org/2000/svg">
<path d="M41.2106 94.2981H23.25C21.7947 94.2981 20.615 95.4778 20.615 96.9331V105.632C20.615 107.088 21.7947 108.268 23.25 108.268H41.2106C42.6659 108.268 43.8456 107.088 43.8456 105.632V96.9331C43.8456 95.4778 42.6659 94.2981 41.2106 94.2981Z" fill="#11a8d5"/>
<path d="M70.99 94.2981H53.0294C51.5741 94.2981 50.3944 95.4778 50.3944 96.9331V105.632C50.3944 107.088 51.5741 108.268 53.0294 108.268H70.99C72.4453 108.268 73.625 107.088 73.625 105.632V96.9331C73.625 95.4778 72.4453 94.2981 70.99 94.2981Z" fill="#11a8d5"/>
<path d="M100.75 94.2981H82.7894C81.3341 94.2981 80.1544 95.4778 80.1544 96.9331V105.632C80.1544 107.088 81.3341 108.268 82.7894 108.268H100.75C102.205 108.268 103.385 107.088 103.385 105.632V96.9331C103.385 95.4778 102.205 94.2981 100.75 94.2981Z" fill="#11a8d5"/>
<path d="M93.9494 90.4037H89.59V87.4781C89.59 86.7125 89.2859 85.9782 88.7445 85.4368C88.2031 84.8954 87.4688 84.5912 86.7032 84.5912H37.2969C36.5313 84.5912 35.797 84.8954 35.2556 85.4368C34.7142 85.9782 34.41 86.7125 34.41 87.4781V90.4037H30.0507V87.4781C30.0558 85.5579 30.8209 83.7177 32.1787 82.3599C33.5365 81.0021 35.3767 80.237 37.2969 80.2319H86.7032C88.6234 80.237 90.4636 81.0021 91.8214 82.3599C93.1792 83.7177 93.9443 85.5579 93.9494 87.4781V90.4037Z" fill="#CEE3E9"/>
<path d="M64.1894 72.7919H59.83V90.4037H64.1894V72.7919Z" fill="#CEE3E9"/>
<path d="M83.7193 42.0244C83.7193 41.3269 83.7193 40.6294 83.6225 39.9513C83.5637 39.4366 83.628 38.9154 83.8098 38.4303C83.9917 37.9453 84.2861 37.5104 84.6687 37.1613L86.0831 35.8631C86.6378 35.3638 87.004 34.6889 87.1204 33.9517C87.2368 33.2145 87.0963 32.4597 86.7225 31.8138L83.1962 25.7106C82.8248 25.0504 82.2336 24.5414 81.5255 24.2723C80.8174 24.0033 80.0373 23.9912 79.3212 24.2381L77.4806 24.8194C77.0052 24.9731 76.5006 25.0145 76.0065 24.9406C75.5124 24.8666 75.0421 24.6793 74.6325 24.3931C73.4517 23.5569 72.1929 22.8367 70.8737 22.2425C70.4179 22.0306 70.0178 21.7154 69.705 21.3219C69.3923 20.9284 69.1755 20.4675 69.0718 19.9756L68.665 18.0381C68.5006 17.3252 68.1021 16.6879 67.5332 16.2279C66.9643 15.7678 66.2577 15.5116 65.5262 15.5H58.4737C57.7269 15.5005 57.0026 15.7564 56.4212 16.2251C55.8397 16.6938 55.4359 17.3472 55.2768 18.0769L54.87 20.0144C54.7663 20.5062 54.5495 20.9672 54.2368 21.3606C53.924 21.7541 53.5239 22.0693 53.0681 22.2813C51.7489 22.8755 50.4901 23.5957 49.3093 24.4319C48.8997 24.718 48.4295 24.9054 47.9353 24.9793C47.4412 25.0533 46.9366 25.0118 46.4612 24.8581L44.6206 24.2769C43.9045 24.0299 43.1244 24.042 42.4163 24.3111C41.7082 24.5802 41.117 25.0892 40.7456 25.7494L37.2193 31.8525C36.8455 32.4985 36.7051 33.2533 36.8215 33.9905C36.9379 34.7277 37.3041 35.4025 37.8587 35.9019L39.2731 37.2C39.6557 37.5491 39.9501 37.9841 40.132 38.4691C40.3139 38.9541 40.3781 39.4753 40.3193 39.99C40.3193 40.6681 40.2225 41.3656 40.2225 42.0631C40.2225 42.7606 40.2225 43.4388 40.3193 44.1169C40.3781 44.6344 40.3139 45.1585 40.1321 45.6467C39.9504 46.1348 39.6561 46.5732 39.2731 46.9263L37.8587 48.205C37.2992 48.7152 36.9351 49.4044 36.829 50.1542C36.7229 50.9039 36.8815 51.6671 37.2775 52.3125L40.8037 58.435C41.1779 59.0925 41.7693 59.5991 42.4765 59.8679C43.1837 60.1366 43.9623 60.1506 44.6787 59.9075L46.5 59.3263C46.9772 59.1632 47.4866 59.1168 47.9855 59.1909C48.4844 59.2651 48.9583 59.4576 49.3675 59.7525C50.5456 60.5928 51.8048 61.3133 53.1262 61.9031C53.5838 62.1125 53.9854 62.4269 54.2985 62.8209C54.6116 63.2148 54.8273 63.677 54.9281 64.17L55.335 66.1075C55.4902 66.8408 55.8923 67.4986 56.4741 67.9711C57.056 68.4437 57.7823 68.7023 58.5318 68.7038H65.5843C66.3573 68.6789 67.0965 68.3812 67.671 67.8634C68.2455 67.3456 68.6182 66.6412 68.7231 65.875L69.13 63.9375C69.2307 63.4445 69.4464 62.9823 69.7595 62.5883C70.0726 62.1944 70.4743 61.88 70.9318 61.6706C72.2533 61.0808 73.5124 60.3603 74.6906 59.52C75.1042 59.2568 75.5734 59.0936 76.061 59.0431C76.5486 58.9927 77.0413 59.0565 77.5 59.2294L79.3212 59.8106C80.0376 60.0537 80.8163 60.0397 81.5234 59.771C82.2306 59.5023 82.8221 58.9956 83.1962 58.3381L86.7225 52.3125C87.0963 51.6665 87.2368 50.9117 87.1204 50.1745C87.004 49.4373 86.6378 48.7625 86.0831 48.2631L84.6687 46.9844C84.2858 46.6313 83.9915 46.1929 83.8097 45.7048C83.6279 45.2167 83.5637 44.6926 83.6225 44.175C83.6806 43.4 83.7193 42.7219 83.7193 42.0244Z" fill="#11a8d5"/>
<path d="M62 49.755C66.2695 49.755 69.7307 46.2939 69.7307 42.0244C69.7307 37.7549 66.2695 34.2938 62 34.2938C57.7305 34.2938 54.2694 37.7549 54.2694 42.0244C54.2694 46.2939 57.7305 49.755 62 49.755Z" fill="#235563"/>
</svg>
