<svg width="124" height="124" viewBox="0 0 124 124" fill="none" xmlns="http://www.w3.org/2000/svg">
<path d="M25.0325 44.1169C25.0325 45.0595 24.753 45.981 24.2292 46.7649C23.7055 47.5487 22.9611 48.1596 22.0902 48.5203C21.2193 48.8811 20.261 48.9754 19.3364 48.7915C18.4118 48.6076 17.5626 48.1537 16.896 47.4871C16.2294 46.8205 15.7755 45.9713 15.5916 45.0467C15.4077 44.1222 15.5021 43.1638 15.8628 42.2929C16.2236 41.422 16.8345 40.6776 17.6183 40.1539C18.4021 39.6302 19.3236 39.3506 20.2663 39.3506C21.5303 39.3506 22.7427 39.8528 23.6365 40.7466C24.5303 41.6405 25.0325 42.8528 25.0325 44.1169V44.1169Z" fill="#EBF4F6"/>
<path d="M25.0325 56.0325C25.0325 56.9752 24.753 57.8967 24.2292 58.6805C23.7055 59.4643 22.9611 60.0752 22.0902 60.4359C21.2193 60.7967 20.261 60.8911 19.3364 60.7072C18.4118 60.5232 17.5626 60.0693 16.896 59.4027C16.2294 58.7362 15.7755 57.8869 15.5916 56.9623C15.4077 56.0378 15.5021 55.0794 15.8628 54.2085C16.2236 53.3376 16.8345 52.5932 17.6183 52.0695C18.4021 51.5458 19.3236 51.2662 20.2663 51.2662C21.5303 51.2662 22.7427 51.7684 23.6365 52.6622C24.5303 53.5561 25.0325 54.7684 25.0325 56.0325V56.0325Z" fill="#EBF4F6"/>
<path d="M25.0325 67.9675C25.0325 68.9102 24.753 69.8317 24.2292 70.6155C23.7055 71.3993 22.9611 72.0102 22.0902 72.3709C21.2193 72.7317 20.261 72.8261 19.3364 72.6422C18.4118 72.4582 17.5626 72.0043 16.896 71.3377C16.2294 70.6712 15.7755 69.8219 15.5916 68.8973C15.4077 67.9728 15.5021 67.0144 15.8628 66.1435C16.2236 65.2726 16.8345 64.5282 17.6183 64.0045C18.4021 63.4808 19.3236 63.2012 20.2663 63.2012C20.8922 63.2012 21.5119 63.3245 22.0902 63.564C22.6685 63.8036 23.1939 64.1547 23.6365 64.5972C24.0791 65.0398 24.4302 65.5653 24.6697 66.1435C24.9092 66.7218 25.0325 67.3416 25.0325 67.9675V67.9675Z" fill="#EBF4F6"/>
<path d="M25.0325 79.8831C25.0325 80.8258 24.753 81.7473 24.2292 82.5311C23.7055 83.3149 22.9611 83.9258 22.0902 84.2866C21.2193 84.6473 20.261 84.7417 19.3364 84.5578C18.4118 84.3739 17.5626 83.92 16.896 83.2534C16.2294 82.5868 15.7755 81.7375 15.5916 80.813C15.4077 79.8884 15.5021 78.9301 15.8628 78.0592C16.2236 77.1882 16.8345 76.4439 17.6183 75.9201C18.4021 75.3964 19.3236 75.1169 20.2663 75.1169C21.5303 75.1169 22.7427 75.619 23.6365 76.5129C24.5303 77.4067 25.0325 78.619 25.0325 79.8831V79.8831Z" fill="#CEE3E9"/>
<path d="M25.0325 91.7988C25.0325 92.7414 24.753 93.6629 24.2292 94.4467C23.7055 95.2306 22.9611 95.8415 22.0902 96.2022C21.2193 96.5629 20.261 96.6573 19.3364 96.4734C18.4118 96.2895 17.5626 95.8356 16.896 95.169C16.2294 94.5024 15.7755 93.6532 15.5916 92.7286C15.4077 91.804 15.5021 90.8457 15.8628 89.9748C16.2236 89.1039 16.8345 88.3595 17.6183 87.8358C18.4021 87.312 19.3236 87.0325 20.2663 87.0325C21.5288 87.0376 22.7381 87.5414 23.6309 88.4341C24.5236 89.3269 25.0274 90.5362 25.0325 91.7988V91.7988Z" fill="#CEE3E9"/>
<path d="M25.0325 103.734C25.0325 104.676 24.753 105.598 24.2292 106.382C23.7055 107.166 22.9611 107.776 22.0902 108.137C21.2193 108.498 20.261 108.592 19.3364 108.408C18.4118 108.225 17.5626 107.771 16.896 107.104C16.2294 106.437 15.7755 105.588 15.5916 104.664C15.4077 103.739 15.5021 102.781 15.8628 101.91C16.2236 101.039 16.8345 100.294 17.6183 99.7707C18.4021 99.247 19.3236 98.9675 20.2663 98.9675C21.5303 98.9675 22.7427 99.4697 23.6365 100.363C24.5303 101.257 25.0325 102.47 25.0325 103.734V103.734Z" fill="#11a8d5"/>
<path d="M36.9675 56.0325C36.9713 56.9806 36.6934 57.9086 36.1691 58.6985C35.6447 59.4885 34.8975 60.1049 34.0222 60.4695C33.147 60.8341 32.1832 60.9305 31.253 60.7464C30.3229 60.5624 29.4684 60.1062 28.798 59.4358C28.1275 58.7653 27.6714 57.9108 27.4873 56.9807C27.3033 56.0506 27.3997 55.0868 27.7643 54.2115C28.1289 53.3363 28.7453 52.5891 29.5352 52.0647C30.3252 51.5403 31.2531 51.2624 32.2013 51.2662C33.4654 51.2662 34.6777 51.7684 35.5715 52.6622C36.4654 53.5561 36.9675 54.7684 36.9675 56.0325V56.0325Z" fill="#EBF4F6"/>
<path d="M36.9675 67.9675C36.9713 68.9156 36.6934 69.8436 36.1691 70.6335C35.6447 71.4235 34.8975 72.0399 34.0222 72.4045C33.147 72.7691 32.1832 72.8655 31.253 72.6814C30.3229 72.4974 29.4684 72.0412 28.798 71.3708C28.1275 70.7003 27.6714 69.8458 27.4873 68.9157C27.3033 67.9856 27.3997 67.0218 27.7643 66.1465C28.1289 65.2713 28.7453 64.5241 29.5352 63.9997C30.3252 63.4753 31.2531 63.1974 32.2013 63.2012C32.8272 63.2012 33.447 63.3245 34.0252 63.564C34.6035 63.8036 35.1289 64.1547 35.5715 64.5972C36.0141 65.0398 36.3652 65.5653 36.6047 66.1435C36.8442 66.7218 36.9675 67.3416 36.9675 67.9675V67.9675Z" fill="#EBF4F6"/>
<path d="M36.9675 79.8831C36.9713 80.8313 36.6934 81.7592 36.1691 82.5492C35.6447 83.3391 34.8975 83.9555 34.0222 84.3201C33.147 84.6847 32.1832 84.7811 31.253 84.5971C30.3229 84.4131 29.4684 83.9569 28.798 83.2864C28.1275 82.616 27.6714 81.7615 27.4873 80.8314C27.3033 79.9012 27.3997 78.9374 27.7643 78.0622C28.1289 77.1869 28.7453 76.4397 29.5352 75.9153C30.3252 75.391 31.2531 75.1131 32.2013 75.1169C33.4654 75.1169 34.6777 75.619 35.5715 76.5129C36.4654 77.4067 36.9675 78.6191 36.9675 79.8831V79.8831Z" fill="#EBF4F6"/>
<path d="M36.9675 91.7988C36.9713 92.7469 36.6934 93.6748 36.1691 94.4648C35.6447 95.2547 34.8975 95.8711 34.0222 96.2357C33.147 96.6003 32.1832 96.6967 31.253 96.5127C30.3229 96.3287 29.4684 95.8725 28.798 95.202C28.1275 94.5316 27.6714 93.6771 27.4873 92.747C27.3033 91.8169 27.3997 90.853 27.7643 89.9778C28.1289 89.1025 28.7453 88.3553 29.5352 87.831C30.3252 87.3066 31.2531 87.0287 32.2013 87.0325C33.4638 87.0376 34.6731 87.5414 35.5659 88.4341C36.4586 89.3269 36.9624 90.5362 36.9675 91.7988Z" fill="#11a8d5"/>
<path d="M36.9675 103.734C36.9713 104.682 36.6934 105.61 36.1691 106.4C35.6447 107.19 34.8975 107.806 34.0222 108.171C33.147 108.535 32.1832 108.632 31.253 108.448C30.3229 108.264 29.4684 107.807 28.798 107.137C28.1275 106.467 27.6714 105.612 27.4873 104.682C27.3033 103.752 27.3997 102.788 27.7643 101.913C28.1289 101.038 28.7453 100.29 29.5352 99.7659C30.3252 99.2416 31.2531 98.9637 32.2013 98.9675C33.4654 98.9675 34.6777 99.4697 35.5715 100.364C36.4654 101.257 36.9675 102.47 36.9675 103.734V103.734Z" fill="#11a8d5"/>
<path d="M48.8832 67.9675C48.8832 68.9102 48.6036 69.8317 48.0799 70.6155C47.5562 71.3993 46.8118 72.0102 45.9409 72.3709C45.0699 72.7317 44.1116 72.8261 43.1871 72.6422C42.2625 72.4582 41.4132 72.0043 40.7467 71.3377C40.0801 70.6712 39.6261 69.8219 39.4422 68.8973C39.2583 67.9728 39.3527 67.0144 39.7135 66.1435C40.0742 65.2726 40.6851 64.5282 41.4689 64.0045C42.2527 63.4808 43.1742 63.2012 44.1169 63.2012C44.7428 63.2012 45.3626 63.3245 45.9409 63.564C46.5191 63.8036 47.0446 64.1547 47.4872 64.5972C47.9297 65.0398 48.2808 65.5653 48.5203 66.1435C48.7599 66.7218 48.8832 67.3416 48.8832 67.9675V67.9675Z" fill="#CEE3E9"/>
<path d="M48.8832 79.8831C48.8832 80.8258 48.6036 81.7473 48.0799 82.5311C47.5562 83.3149 46.8118 83.9258 45.9409 84.2866C45.0699 84.6473 44.1116 84.7417 43.1871 84.5578C42.2625 84.3739 41.4132 83.92 40.7467 83.2534C40.0801 82.5868 39.6261 81.7375 39.4422 80.813C39.2583 79.8884 39.3527 78.9301 39.7135 78.0592C40.0742 77.1882 40.6851 76.4439 41.4689 75.9201C42.2527 75.3964 43.1742 75.1169 44.1169 75.1169C45.381 75.1169 46.5933 75.619 47.4872 76.5129C48.381 77.4067 48.8832 78.619 48.8832 79.8831V79.8831Z" fill="#CEE3E9"/>
<path d="M48.8832 91.7988C48.8832 92.7414 48.6036 93.6629 48.0799 94.4467C47.5562 95.2306 46.8118 95.8415 45.9409 96.2022C45.0699 96.5629 44.1116 96.6573 43.1871 96.4734C42.2625 96.2895 41.4132 95.8356 40.7467 95.169C40.0801 94.5024 39.6261 93.6532 39.4422 92.7286C39.2583 91.804 39.3527 90.8457 39.7135 89.9748C40.0742 89.1039 40.6851 88.3595 41.4689 87.8358C42.2527 87.312 43.1742 87.0325 44.1169 87.0325C45.3794 87.0376 46.5888 87.5414 47.4815 88.4341C48.3743 89.3269 48.8781 90.5362 48.8832 91.7988V91.7988Z" fill="#CEE3E9"/>
<path d="M48.8832 103.734C48.8832 104.676 48.6036 105.598 48.0799 106.382C47.5562 107.166 46.8118 107.776 45.9409 108.137C45.0699 108.498 44.1116 108.592 43.1871 108.408C42.2625 108.225 41.4132 107.771 40.7467 107.104C40.0801 106.437 39.6261 105.588 39.4422 104.664C39.2583 103.739 39.3527 102.781 39.7135 101.91C40.0742 101.039 40.6851 100.294 41.4689 99.7707C42.2527 99.247 43.1742 98.9675 44.1169 98.9675C45.381 98.9675 46.5933 99.4697 47.4872 100.363C48.381 101.257 48.8832 102.47 48.8832 103.734V103.734Z" fill="#11a8d5"/>
<path d="M60.7988 56.0325C60.7988 56.9752 60.5193 57.8967 59.9955 58.6805C59.4718 59.4643 58.7274 60.0752 57.8565 60.4359C56.9856 60.7967 56.0273 60.8911 55.1027 60.7072C54.1781 60.5232 53.3289 60.0693 52.6623 59.4027C51.9957 58.7362 51.5418 57.8869 51.3579 56.9623C51.174 56.0378 51.2684 55.0794 51.6291 54.2085C51.9899 53.3376 52.6008 52.5932 53.3846 52.0695C54.1684 51.5458 55.0899 51.2662 56.0325 51.2662C57.2966 51.2662 58.509 51.7684 59.4028 52.6622C60.2966 53.5561 60.7988 54.7684 60.7988 56.0325V56.0325Z" fill="#EBF4F6"/>
<path d="M60.7988 67.9675C60.7988 68.9102 60.5193 69.8317 59.9955 70.6155C59.4718 71.3993 58.7274 72.0102 57.8565 72.3709C56.9856 72.7317 56.0273 72.8261 55.1027 72.6422C54.1781 72.4582 53.3289 72.0043 52.6623 71.3377C51.9957 70.6712 51.5418 69.8219 51.3579 68.8973C51.174 67.9728 51.2684 67.0144 51.6291 66.1435C51.9899 65.2726 52.6008 64.5282 53.3846 64.0045C54.1684 63.4808 55.0899 63.2012 56.0325 63.2012C56.6585 63.2012 57.2782 63.3245 57.8565 63.564C58.4348 63.8036 58.9602 64.1547 59.4028 64.5972C59.8454 65.0398 60.1965 65.5653 60.436 66.1435C60.6755 66.7218 60.7988 67.3416 60.7988 67.9675V67.9675Z" fill="#EBF4F6"/>
<path d="M60.7988 79.8831C60.7988 80.8258 60.5193 81.7473 59.9955 82.5311C59.4718 83.3149 58.7274 83.9258 57.8565 84.2866C56.9856 84.6473 56.0273 84.7417 55.1027 84.5578C54.1781 84.3739 53.3289 83.92 52.6623 83.2534C51.9957 82.5868 51.5418 81.7375 51.3579 80.813C51.174 79.8884 51.2684 78.9301 51.6291 78.0592C51.9899 77.1882 52.6008 76.4439 53.3846 75.9201C54.1684 75.3964 55.0899 75.1169 56.0325 75.1169C57.2966 75.1169 58.509 75.619 59.4028 76.5129C60.2966 77.4067 60.7988 78.619 60.7988 79.8831V79.8831Z" fill="#CEE3E9"/>
<path d="M60.7988 91.7988C60.7988 92.7414 60.5193 93.6629 59.9955 94.4467C59.4718 95.2306 58.7274 95.8415 57.8565 96.2022C56.9856 96.5629 56.0273 96.6573 55.1027 96.4734C54.1781 96.2895 53.3289 95.8356 52.6623 95.169C51.9957 94.5024 51.5418 93.6532 51.3579 92.7286C51.174 91.804 51.2684 90.8457 51.6291 89.9748C51.9899 89.1039 52.6008 88.3595 53.3846 87.8358C54.1684 87.312 55.0899 87.0325 56.0325 87.0325C57.2951 87.0376 58.5044 87.5414 59.3972 88.4341C60.2899 89.3269 60.7937 90.5362 60.7988 91.7988V91.7988Z" fill="#11a8d5"/>
<path d="M60.7988 103.734C60.7988 104.676 60.5193 105.598 59.9955 106.382C59.4718 107.166 58.7274 107.776 57.8565 108.137C56.9856 108.498 56.0273 108.592 55.1027 108.408C54.1781 108.225 53.3289 107.771 52.6623 107.104C51.9957 106.437 51.5418 105.588 51.3579 104.664C51.174 103.739 51.2684 102.781 51.6291 101.91C51.9899 101.039 52.6008 100.294 53.3846 99.7707C54.1684 99.247 55.0899 98.9675 56.0325 98.9675C57.2966 98.9675 58.509 99.4697 59.4028 100.363C60.2966 101.257 60.7988 102.47 60.7988 103.734V103.734Z" fill="#11a8d5"/>
<path d="M72.7337 44.1169C72.7337 45.0595 72.4542 45.981 71.9305 46.7649C71.4068 47.5487 70.6624 48.1596 69.7914 48.5203C68.9205 48.8811 67.9622 48.9754 67.0376 48.7915C66.1131 48.6076 65.2638 48.1537 64.5972 47.4871C63.9307 46.8205 63.4767 45.9713 63.2928 45.0467C63.1089 44.1222 63.2033 43.1638 63.564 42.2929C63.9248 41.422 64.5357 40.6776 65.3195 40.1539C66.1033 39.6302 67.0248 39.3506 67.9675 39.3506C69.2316 39.3506 70.4439 39.8528 71.3377 40.7466C72.2316 41.6405 72.7337 42.8528 72.7337 44.1169Z" fill="#EBF4F6"/>
<path d="M72.7337 56.0325C72.7337 56.9752 72.4542 57.8967 71.9305 58.6805C71.4068 59.4643 70.6624 60.0752 69.7914 60.4359C68.9205 60.7967 67.9622 60.8911 67.0376 60.7072C66.1131 60.5232 65.2638 60.0693 64.5972 59.4027C63.9307 58.7362 63.4767 57.8869 63.2928 56.9623C63.1089 56.0378 63.2033 55.0794 63.564 54.2085C63.9248 53.3376 64.5357 52.5932 65.3195 52.0695C66.1033 51.5458 67.0248 51.2662 67.9675 51.2662C69.2316 51.2662 70.4439 51.7684 71.3377 52.6622C72.2316 53.5561 72.7337 54.7684 72.7337 56.0325V56.0325Z" fill="#CEE3E9"/>
<path d="M72.7337 67.9675C72.7337 68.9102 72.4542 69.8317 71.9305 70.6155C71.4068 71.3993 70.6624 72.0102 69.7914 72.3709C68.9205 72.7317 67.9622 72.8261 67.0376 72.6422C66.1131 72.4582 65.2638 72.0043 64.5972 71.3377C63.9307 70.6712 63.4767 69.8219 63.2928 68.8973C63.1089 67.9728 63.2033 67.0144 63.564 66.1435C63.9248 65.2726 64.5357 64.5282 65.3195 64.0045C66.1033 63.4808 67.0248 63.2012 67.9675 63.2012C68.5934 63.2012 69.2132 63.3245 69.7914 63.564C70.3697 63.8036 70.8951 64.1547 71.3377 64.5972C71.7803 65.0398 72.1314 65.5653 72.3709 66.1435C72.6105 66.7218 72.7337 67.3416 72.7337 67.9675V67.9675Z" fill="#CEE3E9"/>
<path d="M72.7337 79.8831C72.7337 80.8258 72.4542 81.7473 71.9305 82.5311C71.4068 83.3149 70.6624 83.9258 69.7914 84.2866C68.9205 84.6473 67.9622 84.7417 67.0376 84.5578C66.1131 84.3739 65.2638 83.92 64.5972 83.2534C63.9307 82.5868 63.4767 81.7375 63.2928 80.813C63.1089 79.8884 63.2033 78.9301 63.564 78.0592C63.9248 77.1882 64.5357 76.4439 65.3195 75.9201C66.1033 75.3964 67.0248 75.1169 67.9675 75.1169C69.2316 75.1169 70.4439 75.619 71.3377 76.5129C72.2316 77.4067 72.7337 78.619 72.7337 79.8831Z" fill="#CEE3E9"/>
<path d="M72.7337 91.7988C72.7337 92.7414 72.4542 93.6629 71.9305 94.4467C71.4068 95.2306 70.6624 95.8415 69.7914 96.2022C68.9205 96.5629 67.9622 96.6573 67.0376 96.4734C66.1131 96.2895 65.2638 95.8356 64.5972 95.169C63.9307 94.5024 63.4767 93.6532 63.2928 92.7286C63.1089 91.804 63.2033 90.8457 63.564 89.9748C63.9248 89.1039 64.5357 88.3595 65.3195 87.8358C66.1033 87.312 67.0248 87.0325 67.9675 87.0325C69.23 87.0376 70.4394 87.5414 71.3321 88.4341C72.2248 89.3269 72.7286 90.5362 72.7337 91.7988V91.7988Z" fill="#CEE3E9"/>
<path d="M72.7337 103.734C72.7337 104.676 72.4542 105.598 71.9305 106.382C71.4068 107.166 70.6624 107.776 69.7914 108.137C68.9205 108.498 67.9622 108.592 67.0376 108.408C66.1131 108.225 65.2638 107.771 64.5972 107.104C63.9307 106.437 63.4767 105.588 63.2928 104.664C63.1089 103.739 63.2033 102.781 63.564 101.91C63.9248 101.039 64.5357 100.294 65.3195 99.7707C66.1033 99.247 67.0248 98.9675 67.9675 98.9675C69.2316 98.9675 70.4439 99.4697 71.3377 100.363C72.2316 101.257 72.7337 102.47 72.7337 103.734V103.734Z" fill="#11a8d5"/>
<path d="M84.6494 56.0325C84.6494 56.9752 84.3698 57.8967 83.8461 58.6805C83.3224 59.4643 82.578 60.0752 81.7071 60.4359C80.8362 60.7967 79.8778 60.8911 78.9533 60.7072C78.0287 60.5232 77.1795 60.0693 76.5129 59.4027C75.8463 58.7362 75.3924 57.8869 75.2085 56.9623C75.0246 56.0378 75.1189 55.0794 75.4797 54.2085C75.8404 53.3376 76.4513 52.5932 77.2351 52.0695C78.019 51.5458 78.9405 51.2662 79.8831 51.2662C81.1472 51.2662 82.3595 51.7684 83.2534 52.6622C84.1472 53.5561 84.6494 54.7684 84.6494 56.0325V56.0325Z" fill="#EBF4F6"/>
<path d="M84.6494 67.9675C84.6494 68.9102 84.3698 69.8317 83.8461 70.6155C83.3224 71.3993 82.578 72.0102 81.7071 72.3709C80.8362 72.7317 79.8778 72.8261 78.9533 72.6422C78.0287 72.4582 77.1795 72.0043 76.5129 71.3377C75.8463 70.6712 75.3924 69.8219 75.2085 68.8973C75.0246 67.9728 75.1189 67.0144 75.4797 66.1435C75.8404 65.2726 76.4513 64.5282 77.2351 64.0045C78.019 63.4808 78.9405 63.2012 79.8831 63.2012C80.509 63.2012 81.1288 63.3245 81.7071 63.564C82.2854 63.8036 82.8108 64.1547 83.2534 64.5972C83.696 65.0398 84.047 65.5653 84.2866 66.1435C84.5261 66.7218 84.6494 67.3416 84.6494 67.9675V67.9675Z" fill="#CEE3E9"/>
<path d="M84.6494 79.8831C84.6494 80.8258 84.3698 81.7473 83.8461 82.5311C83.3224 83.3149 82.578 83.9258 81.7071 84.2866C80.8362 84.6473 79.8778 84.7417 78.9533 84.5578C78.0287 84.3739 77.1795 83.92 76.5129 83.2534C75.8463 82.5868 75.3924 81.7375 75.2085 80.813C75.0246 79.8884 75.1189 78.9301 75.4797 78.0592C75.8404 77.1882 76.4513 76.4439 77.2351 75.9201C78.019 75.3964 78.9405 75.1169 79.8831 75.1169C81.1472 75.1169 82.3595 75.619 83.2534 76.5129C84.1472 77.4067 84.6494 78.619 84.6494 79.8831Z" fill="#CEE3E9"/>
<path d="M84.6494 91.7988C84.6494 92.7414 84.3698 93.6629 83.8461 94.4467C83.3224 95.2306 82.578 95.8415 81.7071 96.2022C80.8362 96.5629 79.8778 96.6573 78.9533 96.4734C78.0287 96.2895 77.1795 95.8356 76.5129 95.169C75.8463 94.5024 75.3924 93.6532 75.2085 92.7286C75.0246 91.804 75.1189 90.8457 75.4797 89.9748C75.8404 89.1039 76.4513 88.3595 77.2351 87.8358C78.019 87.312 78.9405 87.0325 79.8831 87.0325C81.1456 87.0376 82.355 87.5414 83.2477 88.4341C84.1405 89.3269 84.6443 90.5362 84.6494 91.7988V91.7988Z" fill="#CEE3E9"/>
<path d="M84.6494 103.734C84.6494 104.676 84.3698 105.598 83.8461 106.382C83.3224 107.166 82.578 107.776 81.7071 108.137C80.8362 108.498 79.8778 108.592 78.9533 108.408C78.0287 108.225 77.1795 107.771 76.5129 107.104C75.8463 106.437 75.3924 105.588 75.2085 104.664C75.0246 103.739 75.1189 102.781 75.4797 101.91C75.8404 101.039 76.4513 100.294 77.2351 99.7707C78.019 99.247 78.9405 98.9675 79.8831 98.9675C81.1472 98.9675 82.3595 99.4697 83.2534 100.363C84.1472 101.257 84.6494 102.47 84.6494 103.734V103.734Z" fill="#11a8d5"/>
<path d="M96.5844 32.2012C96.5844 33.1478 96.3037 34.073 95.7779 34.86C95.252 35.647 94.5046 36.2604 93.6301 36.6226C92.7557 36.9848 91.7934 37.0796 90.8651 36.8949C89.9368 36.7103 89.0841 36.2545 88.4148 35.5852C87.7455 34.9159 87.2897 34.0632 87.1051 33.1349C86.9204 32.2066 87.0152 31.2443 87.3774 30.3699C87.7396 29.4954 88.353 28.748 89.14 28.2221C89.927 27.6963 90.8522 27.4156 91.7988 27.4156C93.068 27.4156 94.2852 27.9198 95.1827 28.8173C96.0802 29.7148 96.5844 30.932 96.5844 32.2012Z" fill="#CEE3E9"/>
<path d="M96.5844 44.1169C96.5882 45.0642 96.3108 45.9913 95.7873 46.7809C95.2638 47.5704 94.5177 48.1868 93.6436 48.552C92.7695 48.9172 91.8067 49.0147 90.8771 48.8323C89.9475 48.6498 89.093 48.1955 88.4217 47.527C87.7505 46.8585 87.2928 46.0059 87.1066 45.077C86.9203 44.1482 87.014 43.185 87.3756 42.3094C87.7372 41.4338 88.3506 40.6852 89.138 40.1585C89.9254 39.6318 90.8514 39.3506 91.7988 39.3506C93.0647 39.3506 94.279 39.8521 95.1759 40.7454C96.0728 41.6387 96.5793 42.851 96.5844 44.1169V44.1169Z" fill="#CEE3E9"/>
<path d="M96.5844 56.0325C96.5882 56.9798 96.3108 57.907 95.7873 58.6965C95.2638 59.486 94.5177 60.1024 93.6436 60.4676C92.7695 60.8328 91.8067 60.9303 90.8771 60.7479C89.9475 60.5654 89.093 60.1112 88.4217 59.4427C87.7505 58.7742 87.2928 57.9215 87.1066 56.9926C86.9203 56.0638 87.014 55.1006 87.3756 54.225C87.7372 53.3494 88.3506 52.6008 89.138 52.0741C89.9254 51.5474 90.8514 51.2662 91.7988 51.2662C93.0647 51.2662 94.279 51.7678 95.1759 52.6611C96.0728 53.5543 96.5793 54.7666 96.5844 56.0325V56.0325Z" fill="#CEE3E9"/>
<path d="M96.5844 67.9675C96.5882 68.9148 96.3108 69.842 95.7873 70.6315C95.2638 71.421 94.5177 72.0374 93.6436 72.4026C92.7695 72.7678 91.8067 72.8653 90.8771 72.6829C89.9475 72.5004 89.093 72.0462 88.4217 71.3777C87.7505 70.7092 87.2928 69.8565 87.1066 68.9276C86.9203 67.9988 87.014 67.0356 87.3756 66.16C87.7372 65.2844 88.3506 64.5358 89.138 64.0091C89.9254 63.4824 90.8514 63.2012 91.7988 63.2012C93.0647 63.2012 94.279 63.7028 95.1759 64.5961C96.0728 65.4893 96.5793 66.7016 96.5844 67.9675V67.9675Z" fill="#CEE3E9"/>
<path d="M96.5844 79.8831C96.5882 80.8305 96.3108 81.7576 95.7873 82.5471C95.2638 83.3367 94.5177 83.9531 93.6436 84.3183C92.7695 84.6834 91.8067 84.781 90.8771 84.5985C89.9475 84.4161 89.093 83.9618 88.4217 83.2933C87.7505 82.6248 87.2928 81.7721 87.1066 80.8433C86.9203 79.9144 87.014 78.9512 87.3756 78.0756C87.7372 77.2 88.3506 76.4515 89.138 75.9248C89.9254 75.3981 90.8514 75.1169 91.7988 75.1169C93.0647 75.1169 94.279 75.6184 95.1759 76.5117C96.0728 77.405 96.5793 78.6173 96.5844 79.8831V79.8831Z" fill="#11a8d5"/>
<path d="M96.5844 91.7988C96.5882 92.7461 96.3108 93.6732 95.7873 94.4628C95.2638 95.2523 94.5177 95.8687 93.6436 96.2339C92.7695 96.5991 91.8067 96.6966 90.8771 96.5142C89.9475 96.3317 89.093 95.8774 88.4217 95.2089C87.7505 94.5404 87.2928 93.6878 87.1066 92.7589C86.9203 91.8301 87.014 90.8668 87.3756 89.9913C87.7372 89.1157 88.3506 88.3671 89.138 87.8404C89.9254 87.3137 90.8514 87.0325 91.7988 87.0325C93.0631 87.0376 94.2745 87.5407 95.1703 88.4329C96.0661 89.3251 96.5742 90.5345 96.5844 91.7988V91.7988Z" fill="#11a8d5"/>
<path d="M96.5844 103.734C96.5882 104.681 96.3108 105.608 95.7873 106.398C95.2638 107.187 94.5177 107.804 93.6436 108.169C92.7695 108.534 91.8067 108.632 90.8771 108.449C89.9475 108.267 89.093 107.812 88.4217 107.144C87.7505 106.475 87.2928 105.623 87.1066 104.694C86.9203 103.765 87.014 102.802 87.3756 101.926C87.7372 101.051 88.3506 100.302 89.138 99.7754C89.9254 99.2487 90.8514 98.9675 91.7988 98.9675C93.0647 98.9675 94.279 99.469 95.1759 100.362C96.0728 101.256 96.5793 102.468 96.5844 103.734V103.734Z" fill="#11a8d5"/>
<path d="M108.5 20.2663C108.5 21.2089 108.22 22.1304 107.697 22.9142C107.173 23.698 106.429 24.3089 105.558 24.6697C104.687 25.0304 103.728 25.1248 102.804 24.9409C101.879 24.757 101.03 24.3031 100.364 23.6365C99.697 22.9699 99.243 22.1207 99.0591 21.1961C98.8752 20.2715 98.9696 19.3132 99.3303 18.4423C99.6911 17.5714 100.302 16.827 101.086 16.3033C101.87 15.7795 102.791 15.5 103.734 15.5C104.36 15.5 104.979 15.6233 105.558 15.8628C106.136 16.1023 106.661 16.4534 107.104 16.896C107.547 17.3386 107.898 17.864 108.137 18.4423C108.377 19.0206 108.5 19.6403 108.5 20.2663V20.2663Z" fill="#CEE3E9"/>
<path d="M108.5 32.2012C108.496 33.1431 108.213 34.0627 107.687 34.8439C107.161 35.6252 106.416 36.2331 105.544 36.5908C104.673 36.9486 103.715 37.0403 102.792 36.8542C101.869 36.6681 101.021 36.2126 100.357 35.5453C99.6921 34.8779 99.24 34.0286 99.0577 33.1046C98.8754 32.1806 98.9709 31.2232 99.3322 30.3535C99.6935 29.4837 100.304 28.7404 101.088 28.2176C101.871 27.6947 102.792 27.4156 103.734 27.4156C104.361 27.4156 104.983 27.5395 105.562 27.7803C106.142 28.021 106.668 28.3738 107.111 28.8185C107.554 29.2631 107.904 29.7908 108.143 30.3713C108.381 30.9518 108.503 31.5737 108.5 32.2012V32.2012Z" fill="#CEE3E9"/>
<path d="M108.5 44.1169C108.5 45.0595 108.22 45.981 107.697 46.7649C107.173 47.5487 106.429 48.1596 105.558 48.5203C104.687 48.8811 103.728 48.9754 102.804 48.7915C101.879 48.6076 101.03 48.1537 100.364 47.4871C99.697 46.8205 99.243 45.9713 99.0591 45.0467C98.8752 44.1222 98.9696 43.1638 99.3303 42.2929C99.6911 41.422 100.302 40.6776 101.086 40.1539C101.87 39.6302 102.791 39.3506 103.734 39.3506C104.36 39.3506 104.979 39.4739 105.558 39.7134C106.136 39.953 106.661 40.304 107.104 40.7466C107.547 41.1892 107.898 41.7146 108.137 42.2929C108.377 42.8712 108.5 43.491 108.5 44.1169Z" fill="#CEE3E9"/>
<path d="M108.5 56.0325C108.5 56.9752 108.22 57.8967 107.697 58.6805C107.173 59.4643 106.429 60.0752 105.558 60.4359C104.687 60.7967 103.728 60.8911 102.804 60.7072C101.879 60.5232 101.03 60.0693 100.364 59.4027C99.697 58.7362 99.243 57.8869 99.0591 56.9623C98.8752 56.0378 98.9696 55.0794 99.3303 54.2085C99.6911 53.3376 100.302 52.5932 101.086 52.0695C101.87 51.5458 102.791 51.2662 103.734 51.2662C104.36 51.2662 104.979 51.3895 105.558 51.629C106.136 51.8686 106.661 52.2197 107.104 52.6622C107.547 53.1048 107.898 53.6303 108.137 54.2085C108.377 54.7868 108.5 55.4066 108.5 56.0325V56.0325Z" fill="#CEE3E9"/>
<path d="M108.5 67.9675C108.5 68.9102 108.22 69.8317 107.697 70.6155C107.173 71.3993 106.429 72.0102 105.558 72.3709C104.687 72.7317 103.728 72.8261 102.804 72.6422C101.879 72.4582 101.03 72.0043 100.364 71.3377C99.697 70.6712 99.243 69.8219 99.0591 68.8973C98.8752 67.9728 98.9696 67.0144 99.3303 66.1435C99.6911 65.2726 100.302 64.5282 101.086 64.0045C101.87 63.4808 102.791 63.2012 103.734 63.2012C104.36 63.2012 104.979 63.3245 105.558 63.564C106.136 63.8036 106.661 64.1547 107.104 64.5972C107.547 65.0398 107.898 65.5653 108.137 66.1435C108.377 66.7218 108.5 67.3416 108.5 67.9675Z" fill="#11a8d5"/>
<path d="M108.5 79.8831C108.5 80.8258 108.22 81.7473 107.697 82.5311C107.173 83.3149 106.429 83.9258 105.558 84.2866C104.687 84.6473 103.728 84.7417 102.804 84.5578C101.879 84.3739 101.03 83.92 100.364 83.2534C99.697 82.5868 99.243 81.7375 99.0591 80.813C98.8752 79.8884 98.9696 78.9301 99.3303 78.0592C99.6911 77.1882 100.302 76.4439 101.086 75.9201C101.87 75.3964 102.791 75.1169 103.734 75.1169C104.36 75.1169 104.979 75.2402 105.558 75.4797C106.136 75.7192 106.661 76.0703 107.104 76.5129C107.547 76.9555 107.898 77.4809 108.137 78.0592C108.377 78.6374 108.5 79.2572 108.5 79.8831Z" fill="#11a8d5"/>
<path d="M108.5 91.7988C108.5 92.7414 108.22 93.6629 107.697 94.4467C107.173 95.2306 106.429 95.8415 105.558 96.2022C104.687 96.5629 103.728 96.6573 102.804 96.4734C101.879 96.2895 101.03 95.8356 100.364 95.169C99.697 94.5024 99.243 93.6532 99.0591 92.7286C98.8752 91.804 98.9696 90.8457 99.3303 89.9748C99.6911 89.1039 100.302 88.3595 101.086 87.8358C101.87 87.312 102.791 87.0325 103.734 87.0325C104.996 87.0376 106.206 87.5414 107.098 88.4341C107.991 89.3269 108.495 90.5362 108.5 91.7988V91.7988Z" fill="#11a8d5"/>
<path d="M108.5 103.734C108.5 104.676 108.22 105.598 107.697 106.382C107.173 107.166 106.429 107.776 105.558 108.137C104.687 108.498 103.728 108.592 102.804 108.408C101.879 108.225 101.03 107.771 100.364 107.104C99.697 106.437 99.243 105.588 99.0591 104.664C98.8752 103.739 98.9696 102.781 99.3303 101.91C99.6911 101.039 100.302 100.294 101.086 99.7707C101.87 99.247 102.791 98.9675 103.734 98.9675C104.36 98.9675 104.979 99.0908 105.558 99.3303C106.136 99.5698 106.661 99.9209 107.104 100.363C107.547 100.806 107.898 101.332 108.137 101.91C108.377 102.488 108.5 103.108 108.5 103.734V103.734Z" fill="#11a8d5"/>
</svg>
